<svg width="24" height="24" viewBox="0 0 24 24" fill="none" xmlns="http://www.w3.org/2000/svg">
<path d="M8.75507 14.7124V15.055V17.3389H10.8487V14.8837C10.8487 14.4459 10.7345 14.0653 9.72573 14.0653C8.71701 14.0653 8.75507 14.7124 8.75507 14.7124Z" fill="#F2F2F2"/>
<path d="M12.3711 14.7124V17.3389H15.0356V15.0359C15.0356 14.9979 15.0356 14.9408 15.0356 14.8646C15.0356 14.484 14.8834 13.7607 13.7414 13.7607C12.3901 13.7417 12.3711 14.7124 12.3711 14.7124Z" fill="#F2F2F2"/>
<path d="M0 6.03331L0 17.9857C0 21.2974 2.70262 24 6.01427 24H17.9857C21.2784 24 23.981 21.2974 23.981 17.9857V6.01427C23.981 2.70262 21.2783 0 17.9667 0H6.01427C2.70262 0.0190334 0 2.72165 0 6.03331ZM7.61301 9.91594V5.91911H8.56463L8.56463 9.91594H7.61301ZM13.8747 11.7811C16.8438 11.7811 16.9389 14.7121 16.9389 14.7121V17.4148V17.4909V19.4322H7.04203V17.5099V17.4338L7.04203 14.7312C7.04203 13.2657 7.87946 12.1047 9.63045 12.1047C11.3814 12.1047 11.4766 13.5131 11.4766 13.5131C11.4576 11.6479 13.8747 11.7811 13.8747 11.7811ZM13.7034 4.60587V9.42109C15.6067 9.42109 15.4544 7.7843 15.4544 7.7843C15.4544 6.24266 14.4647 6.29976 14.4647 6.29976V4.66297C17.1293 4.66297 17.0151 7.84139 17.0151 7.84139C17.0151 11.6479 13.2657 11.4005 13.2657 11.4005C13.2657 11.4005 9.49722 11.4005 9.49722 7.84139C9.47819 4.09199 13.7034 4.60587 13.7034 4.60587Z" fill="#F2F2F2"/>
<path d="M10.8677 7.80315C10.8677 9.23058 12.3712 9.43994 12.3712 9.43994V6.39475C12.3712 6.39475 10.8677 6.37571 10.8677 7.80315Z" fill="#F2F2F2"/>
</svg>
