<svg width="494" height="455" viewBox="0 0 494 455" fill="none" xmlns="http://www.w3.org/2000/svg">
<circle cx="5" cy="272" r="5" fill="white"/>
<circle cx="5" cy="94" r="5" fill="white"/>
<circle cx="5" cy="450" r="5" fill="white"/>
<circle cx="5" cy="5" r="5" fill="#FC2070"/>
<circle cx="5" cy="361" r="5" fill="white"/>
<circle cx="5" cy="183" r="5" fill="white"/>
<circle cx="101" cy="272" r="5" fill="white"/>
<circle cx="101" cy="94" r="5" fill="white"/>
<circle cx="101" cy="450" r="5" fill="white"/>
<circle cx="101" cy="5" r="5" fill="white"/>
<circle cx="101" cy="361" r="5" fill="white"/>
<circle cx="101" cy="183" r="5" fill="white"/>
<circle cx="198" cy="272" r="5" fill="white"/>
<circle cx="198" cy="94" r="5" fill="white"/>
<circle cx="198" cy="450" r="5" fill="white"/>
<circle cx="198" cy="5" r="5" fill="white"/>
<circle cx="198" cy="361" r="5" fill="white"/>
<circle cx="198" cy="183" r="5" fill="white"/>
<circle cx="295" cy="272" r="5" fill="white"/>
<circle cx="295" cy="94" r="5" fill="white"/>
<circle cx="295" cy="450" r="5" fill="white"/>
<circle cx="295" cy="5" r="5" fill="white"/>
<circle cx="295" cy="361" r="5" fill="white"/>
<circle cx="295" cy="183" r="5" fill="white"/>
<circle cx="392" cy="272" r="5" fill="white"/>
<circle cx="392" cy="94" r="5" fill="white"/>
<circle cx="392" cy="450" r="5" fill="white"/>
<circle cx="392" cy="5" r="5" fill="white"/>
<circle cx="392" cy="361" r="5" fill="white"/>
<circle cx="392" cy="183" r="5" fill="white"/>
<circle cx="489" cy="272" r="5" fill="white"/>
<circle cx="489" cy="94" r="5" fill="white"/>
<circle cx="489" cy="450" r="5" fill="white"/>
<circle cx="489" cy="5" r="5" fill="white"/>
<circle cx="489" cy="361" r="5" fill="white"/>
<circle cx="489" cy="183" r="5" fill="white"/>
</svg>
