<svg width="24" height="24" viewBox="0 0 24 24" fill="none" xmlns="http://www.w3.org/2000/svg">
<path d="M7.05607 0.0610294C5.78085 0.117254 4.90416 0.323471 4.14449 0.618877C3.33812 0.923624 2.61617 1.39247 2.01602 2.00672C1.40652 2.60687 0.932921 3.33358 0.632936 4.13061C0.337529 4.89467 0.131312 5.76679 0.0750879 7.042C0.0141019 8.32673 0 8.73459 0 11.993C0 15.2515 0.0141019 15.6593 0.0703262 16.9393C0.126551 18.2145 0.332951 19.0912 0.628174 19.8507C0.932922 20.6573 1.40176 21.3792 2.01602 21.9793C2.61617 22.5888 3.34288 23.0623 4.13991 23.3624C4.90416 23.6578 5.77609 23.864 7.0513 23.9203C8.33604 23.9813 8.7439 23.9954 12.0023 23.9954C15.2608 23.9954 15.6686 23.9813 16.9486 23.925C18.2238 23.8688 19.1005 23.6624 19.8602 23.367C20.6666 23.0623 21.3885 22.5888 21.9887 21.9793C22.5982 21.3792 23.0718 20.6525 23.3718 19.8555C23.6672 19.0912 23.8734 18.2193 23.9296 16.9439C23.986 15.6641 23.9999 15.2561 23.9999 11.9976C23.9999 8.73917 23.986 8.33131 23.9296 7.05134C23.8734 5.77613 23.6672 4.89943 23.3718 4.13995C22.7482 2.52702 21.4729 1.25181 19.8602 0.628218C19.096 0.332994 18.2238 0.126595 16.9486 0.0703697C15.6686 0.0141449 15.2608 4.3869e-05 12.0023 4.3869e-05C8.7439 4.3869e-05 8.33604 0.00480461 7.05607 0.0610294ZM16.8549 2.22228C18.027 2.27392 18.6599 2.4708 19.0819 2.63489C20.1274 3.03817 20.9572 3.86798 21.3605 4.91353C21.5246 5.33549 21.7215 5.97301 21.7729 7.14053C21.8293 8.4064 21.8433 8.78605 21.8433 11.9883C21.8433 15.1905 21.8293 15.5749 21.7729 16.8362C21.7215 18.0083 21.5246 18.6412 21.3605 19.0632C21.1682 19.5835 20.8634 20.0571 20.4649 20.4415C20.0758 20.84 19.6069 21.1448 19.0866 21.3371C18.6647 21.5012 18.027 21.698 16.8596 21.7495C15.5937 21.8059 15.2139 21.8198 12.0117 21.8198C8.80946 21.8198 8.42505 21.8059 7.16394 21.7495C5.99183 21.698 5.3589 21.5012 4.93694 21.3371C4.41645 21.1448 3.94303 20.84 3.55843 20.4367C3.15992 20.0478 2.85517 19.5789 2.66306 19.0584C2.49896 18.6365 2.30209 17.9988 2.25044 16.8314C2.19422 15.5656 2.18011 15.1857 2.18011 11.9837C2.18011 8.77671 2.19422 8.39706 2.25044 7.13577C2.30209 5.96367 2.49896 5.33073 2.66306 4.90877C2.85517 4.38847 3.15992 3.91487 3.55843 3.53045C3.94761 3.13194 4.41645 2.82719 4.93694 2.63489C5.3589 2.4708 5.99641 2.27392 7.16394 2.22228C8.42981 2.16605 8.80946 2.15195 12.0117 2.15195C15.2139 2.15195 15.589 2.16605 16.8549 2.22228Z" fill="#F2F2F2"/>
<path d="M5.83691 11.9927C5.83691 15.3964 8.59832 18.158 12.0022 18.158C15.406 18.158 18.1674 15.3964 18.1674 11.9927C18.1674 8.58883 15.406 5.82743 12.0022 5.82743C8.59832 5.82743 5.83691 8.58883 5.83691 11.9927ZM16.0014 11.9927C16.0014 14.2008 14.2105 15.9919 12.0022 15.9919C9.79386 15.9919 8.00293 14.2008 8.00293 11.9927C8.00293 9.78438 9.79386 7.99344 12.0022 7.99344C14.2105 7.99344 16.0014 9.78438 16.0014 11.9927Z" fill="#F2F2F2"/>
<path d="M5.59336 4.14438C6.38819 4.14438 7.03267 4.78886 7.03267 5.58388C7.03267 6.37872 6.38819 7.02319 5.59336 7.02319C4.79834 7.02319 4.15405 6.37872 4.15405 5.58388C4.15405 4.78886 4.79834 4.14438 5.59336 4.14438Z" fill="#F2F2F2"/>
</svg>
