<svg width="20" height="30" viewBox="0 0 20 30" fill="none" xmlns="http://www.w3.org/2000/svg">
<path d="M3.12952 1.30611C1.90578 1.63528 0.941123 2.60011 0.611608 3.82368C0 6.05898 0 15.0003 0 15.0003C0 15.0003 0 23.9414 0.58842 26.1767C0.917586 27.3767 1.90596 28.3651 3.12952 28.6942C5.36465 29.2825 10 29.2825 10 29.2825C10 29.2825 14.6587 29.2825 16.8705 28.6942C18.094 28.3647 19.0587 27.4002 19.3882 26.1765C20 23.9178 20 15 20 15C20 15 20 6.05898 19.4116 3.82368C19.0822 2.59994 18.1176 1.63528 16.894 1.30576C14.6587 0.717691 10.0235 0.717691 10.0235 0.717691C10.0235 0.717691 5.36465 0.694155 3.12952 1.30611ZM14.2823 17.8471H5.7177L10 10.4119L14.2823 17.8471Z" fill="#F2F2F2"/>
</svg>
